<svg width="80" height="50" viewBox="0 0 256 48" fill="none" xmlns="http://www.w3.org/2000/svg">
<path d="M5.66211 33.377C7.32227 34.3145 9.00195 35.1641 10.7012 35.9258C12.4199 36.668 14.1973 37.3027 16.0332 37.8301C17.8691 38.3379 19.793 38.7285 21.8047 39.002C23.8359 39.2754 25.9941 39.4121 28.2793 39.4121C31.0332 39.4121 33.377 39.2363 35.3105 38.8848C37.2441 38.5137 38.8164 38.0156 40.0273 37.3906C41.2578 36.7461 42.1465 35.9844 42.6934 35.1055C43.2598 34.2266 43.543 33.2695 43.543 32.2344C43.543 30.5742 42.8496 29.2656 41.4629 28.3086C40.0762 27.332 37.9375 26.8438 35.0469 26.8438C33.7773 26.8438 32.4395 26.9316 31.0332 27.1074C29.627 27.2637 28.2012 27.4395 26.7559 27.6348C25.3301 27.8301 23.9141 28.0156 22.5078 28.1914C21.1211 28.3477 19.8125 28.4258 18.582 28.4258C16.5312 28.4258 14.5586 28.1621 12.6641 27.6348C10.7891 27.1074 9.11914 26.3164 7.6543 25.2617C6.20898 24.207 5.05664 22.8887 4.19727 21.3066C3.33789 19.7246 2.9082 17.8789 2.9082 15.7695C2.9082 14.5195 3.07422 13.2793 3.40625 12.0488C3.75781 10.8184 4.30469 9.64648 5.04688 8.5332C5.80859 7.40039 6.78516 6.35547 7.97656 5.39844C9.16797 4.42188 10.6035 3.58203 12.2832 2.87891C13.9824 2.17578 15.9355 1.62891 18.1426 1.23828C20.3691 0.828125 22.8984 0.623047 25.7305 0.623047C27.7812 0.623047 29.8418 0.740234 31.9121 0.974609C33.9824 1.18945 35.9941 1.50195 37.9473 1.91211C39.9199 2.32227 41.8145 2.82031 43.6309 3.40625C45.4473 3.97266 47.1367 4.60742 48.6992 5.31055L44.627 12.8105C43.3379 12.2441 41.9512 11.7266 40.4668 11.2578C38.9824 10.7695 37.4297 10.3496 35.8086 9.99805C34.1875 9.64648 32.5078 9.37305 30.7695 9.17773C29.0508 8.96289 27.293 8.85547 25.4961 8.85547C22.9375 8.85547 20.8281 9.04102 19.168 9.41211C17.5273 9.7832 16.2188 10.2617 15.2422 10.8477C14.2656 11.4141 13.582 12.0586 13.1914 12.7812C12.8203 13.4844 12.6348 14.1875 12.6348 14.8906C12.6348 16.2578 13.25 17.3809 14.4805 18.2598C15.7109 19.1191 17.5859 19.5488 20.1055 19.5488C21.1211 19.5488 22.2832 19.4805 23.5918 19.3438C24.9199 19.1875 26.3066 19.0215 27.752 18.8457C29.2168 18.6699 30.7012 18.5137 32.2051 18.377C33.7285 18.2207 35.2031 18.1426 36.6289 18.1426C39.3242 18.1426 41.707 18.4453 43.7773 19.0508C45.8672 19.6562 47.6152 20.5254 49.0215 21.6582C50.4277 22.7715 51.4922 24.1289 52.2148 25.7305C52.9375 27.3125 53.2988 29.0898 53.2988 31.0625C53.2988 33.6992 52.6836 36.0527 51.4531 38.123C50.2422 40.1738 48.5039 41.9121 46.2383 43.3379C43.9922 44.7441 41.2773 45.8184 38.0938 46.5605C34.9102 47.2832 31.3652 47.6445 27.459 47.6445C24.8809 47.6445 22.3613 47.4785 19.9004 47.1465C17.4395 46.834 15.0762 46.3848 12.8105 45.7988C10.5645 45.1934 8.41602 44.4805 6.36523 43.6602C4.33398 42.8203 2.44922 41.9023 0.710938 40.9062L5.66211 33.377ZM62.3516 1.20898H71.6973V47H62.3516V1.20898ZM83.5918 1.20898H92.8789L109.52 17.9082L126.16 1.20898H135.447V47H126.16V14.0703L109.52 30.0957L92.8789 14.0703V47H83.5918V1.20898ZM145.789 23.9727C145.789 20.5156 146.424 17.3516 147.693 14.4805C148.963 11.6094 150.74 9.14844 153.025 7.09766C155.33 5.02734 158.084 3.42578 161.287 2.29297C164.51 1.16016 168.074 0.59375 171.98 0.59375C175.867 0.59375 179.422 1.16016 182.645 2.29297C185.867 3.42578 188.621 5.02734 190.906 7.09766C193.211 9.14844 194.998 11.6094 196.268 14.4805C197.537 17.3516 198.172 20.5156 198.172 23.9727C198.172 27.4492 197.537 30.6426 196.268 33.5527C194.998 36.4434 193.211 38.9336 190.906 41.0234C188.621 43.1133 185.867 44.7441 182.645 45.916C179.422 47.0684 175.867 47.6445 171.98 47.6445C168.074 47.6445 164.51 47.0684 161.287 45.916C158.084 44.7441 155.33 43.1133 153.025 41.0234C150.74 38.9336 148.963 36.4434 147.693 33.5527C146.424 30.6426 145.789 27.4492 145.789 23.9727ZM155.076 23.9727C155.076 26.3359 155.496 28.4648 156.336 30.3594C157.195 32.2539 158.377 33.875 159.881 35.2227C161.404 36.5508 163.191 37.5762 165.242 38.2988C167.312 39.0215 169.559 39.3828 171.98 39.3828C174.402 39.3828 176.639 39.0215 178.689 38.2988C180.76 37.5762 182.547 36.5508 184.051 35.2227C185.555 33.875 186.736 32.2539 187.596 30.3594C188.455 28.4648 188.885 26.3359 188.885 23.9727C188.885 21.6094 188.455 19.4902 187.596 17.6152C186.736 15.7402 185.555 14.1582 184.051 12.8691C182.547 11.5605 180.76 10.5645 178.689 9.88086C176.639 9.19727 174.402 8.85547 171.98 8.85547C169.559 8.85547 167.312 9.19727 165.242 9.88086C163.191 10.5645 161.404 11.5605 159.881 12.8691C158.377 14.1582 157.195 15.7402 156.336 17.6152C155.496 19.4902 155.076 21.6094 155.076 23.9727ZM208.426 1.20898H217.713L246.248 16.1504V1.20898H255.535V47H246.248V25.9941L217.713 11.1406V47H208.426V1.20898Z" fill="white"/>
</svg>

